#!OML:ASF F:\VICON\USERDATA\INSTALL\rory3\rory3.ASF
:FULLY-SPECIFIED
:DEGREES

138
root 4.21866 17.8769 4.38788 -1.57087 -5.00509 -7.33063
lowerback 10.5643 1.71858 6.41245
upperback -0.0112633 3.19219 2.013
thorax -5.71425 1.41443 -1.97172
lowerneck -16.6002 -3.58663 -1.43447
upperneck 22.6175 -4.69493 0.225387
head 9.97503 -2.26769 -0.309874
rclavicle 3.96016e-016 -5.26779e-015
rhumerus -22.8967 -8.80917 -81.4135
rradius 32.0612
rwrist -1.61698
rhand -18.2687 22.6855
rfingers 7.12502
rthumb 8.01102 -7.14272
lclavicle 3.96016e-016 -5.26779e-015
lhumerus -38.4149 -2.16677 87.0337
lradius 28.8197
lwrist 9.45716
lhand -28.1502 21.0042
lfingers 7.12502
lthumb -1.53102 50.9785
rfemur 5.54564 9.06125 34.7384
rtibia 25.1346
rfoot -21.0153 -6.80369
rtoes 6.47864
lfemur -26.5586 -4.28702 -8.30653
ltibia 22.7794
lfoot -8.49684 6.25043
ltoes -5.03455
139
root 4.22834 17.8704 4.57592 -1.42893 -5.04244 -7.35992
lowerback 10.3353 1.74281 6.51169
upperback 0.0400008 3.2113 1.97539
thorax -5.52191 1.42811 -2.05825
lowerneck -16.6349 -3.5741 -1.40611
upperneck 22.4701 -4.68695 0.246246
head 9.92862 -2.25975 -0.305028
rclavicle 3.71789e-015 -3.47873e-015
rhumerus -22.3973 -8.78449 -81.4579
rradius 31.9994
rwrist -1.58688
rhand -18.415 22.4813
rfingers 7.12502
rthumb 7.86976 -7.35225
lclavicle 3.71789e-015 -3.47873e-015
lhumerus -38.6083 -2.15064 87.0435
lradius 28.9273
lwrist 8.82839
lhand -28.576 20.6536
lfingers 7.12502
lthumb -1.94223 50.6245
rfemur 6.26687 8.85702 34.7051
rtibia 24.669
rfoot -21.0773 -6.6535
rtoes 5.59004
lfemur -26.5516 -5.39948 -7.83832
ltibia 20.6188
lfoot -8.48185 7.30221
ltoes -5.30613
140
root 4.23858 17.8682 4.76542 -1.30266 -5.1407 -7.31701
lowerback 10.1816 1.80851 6.49755
upperback 0.0701346 3.28036 1.95052
thorax -5.39708 1.46702 -2.07863
lowerneck -16.8286 -3.58833 -1.42602
upperneck 22.367 -4.70271 0.2719
head 9.92968 -2.26499 -0.297573
rclavicle 4.67765e-015 6.31141e-015
rhumerus -22.1193 -8.79844 -81.444
rradius 32.1375
rwrist -1.70421
rhand -18.7905 22.1157
rfingers 7.12502
rthumb 7.50739 -7.73104
lclavicle 4.67765e-015 6.31141e-015
lhumerus -38.4947 -1.7274 86.8489
lradius 28.8775
lwrist 7.39762
lhand -26.7557 24.1926
lfingers 7.12502
lthumb -0.184175 54.1722
rfemur 6.8795 8.60044 34.554
rtibia 24.3757
rfoot -21.0788 -6.40915
rtoes 4.72211
lfemur -26.313 -6.24442 -7.52052
ltibia 18.4483
lfoot -8.66318 8.0629
ltoes -4.86016
141
root 4.25362 17.856 4.95894 -1.26662 -5.35509 -7.36288
lowerback 10.198 1.87936 6.57859
upperback 0.0607079 3.38787 1.98699
thorax -5.40546 1.51762 -2.10103
lowerneck -16.9599 -3.6297 -1.63531
upperneck 22.3022 -4.73128 0.40053
head 9.94091 -2.28029 -0.22403
rclavicle 2.4786e-014 4.6118e-014
rhumerus -22.1759 -8.89084 -81.3371
rradius 32.5093
rwrist -1.52361
rhand -19.1466 21.7541
rfingers 7.12502
rthumb 7.16361 -8.10469
lclavicle 2.4786e-014 4.6118e-014
lhumerus -38.4639 -1.35325 86.775
lradius 29.0124
lwrist 7.55364
lhand -25.3453 28.453
lfingers 7.12502
lthumb 1.17807 58.4295
rfemur 7.48895 8.40837 34.4718
rtibia 24.3713
rfoot -21.1659 -6.11723
rtoes 4.29219
lfemur -25.8751 -6.72522 -7.24888
ltibia 16.4541
lfoot -8.9942 8.77952
ltoes -3.94786
142
root 4.27041 17.8281 5.15601 -1.25058 -5.52124 -7.30682
lowerback 10.1471 1.91306 6.563
upperback 0.0437536 3.42716 1.98364
thorax -5.39221 1.53748 -2.09929
lowerneck -16.8348 -3.60262 -1.74463
upperneck 22.1044 -4.67512 0.455122
head 9.85092 -2.25924 -0.174585
rclavicle 1.69433e-015 5.34234e-015
rhumerus -22.1627 -8.7562 -81.3034
rradius 32.6196
rwrist -1.61943
rhand -19.3217 21.5583
rfingers 7.12502
rthumb 6.99463 -8.30614
lclavicle 1.69433e-015 5.34234e-015
lhumerus -38.7161 -1.19263 86.7906
lradius 29.1536
lwrist 7.94847
lhand -24.6596 29.1091
lfingers 7.12502
lthumb 1.84036 59.0809
rfemur 8.07328 8.32314 34.3024
rtibia 24.5418
rfoot -21.297 -5.83667
rtoes 4.60352
lfemur -25.7261 -6.98025 -7.21971
ltibia 15.053
lfoot -9.42449 9.60585
ltoes -3.50681
143
root 4.28454 17.7992 5.34511 -1.15276 -5.60437 -7.20597
lowerback 10.1048 1.96468 6.4832
upperback -0.0258826 3.48469 1.94295
thorax -5.43935 1.56459 -2.10505
lowerneck -16.8072 -3.57446 -1.71841
upperneck 21.971 -4.64575 0.474323
head 9.79784 -2.24216 -0.166185
rclavicle 2.35669e-014 -7.50412e-015
rhumerus -22.2735 -8.77792 -81.2342
rradius 32.7277
rwrist -1.6065
rhand -19.4435 22.2718
rfingers 7.12502
rthumb 6.87709 -7.59653
lclavicle 2.35669e-014 -7.50412e-015
lhumerus -38.8685 -1.04213 86.7349
lradius 29.1617
lwrist 6.28087
lhand -23.4049 31.9344
lfingers 7.12502
lthumb 3.05211 61.8923
rfemur 8.54426 8.32211 34.1323
rtibia 24.7899
rfoot -21.3445 -5.8144
rtoes 3.57875
lfemur -25.7317 -6.49631 -7.54914
ltibia 14.1936
lfoot -9.428 9.74134
ltoes -5.66126
144
root 4.30126 17.782 5.53076 -1.00708 -5.58497 -7.09011
lowerback 10.091 1.98364 6.45995
upperback -0.130765 3.50719 1.85413
thorax -5.53639 1.56994 -2.19003
lowerneck -16.7451 -3.60595 -1.46897
upperneck 21.8252 -4.69929 0.241619
head 9.72186 -2.27463 -0.292037
rclavicle -3.29874e-014 -1.00386e-014
rhumerus -22.2212 -9.11391 -81.1724
rradius 32.5813
rwrist -1.24112
rhand -19.5036 23.0101
rfingers 7.12502
rthumb 6.81899 -6.86011
lclavicle -3.29874e-014 -1.00386e-014
lhumerus -38.9962 -1.60092 87.209
lradius 27.928
lwrist 7.80117
lhand -28.3018 20.9447
lfingers 7.12502
lthumb -1.67737 50.9178
rfemur 8.8568 8.37681 33.9382
rtibia 25.1908
rfoot -21.2964 -5.64447
rtoes 2.34771
lfemur -25.6118 -5.68288 -8.11191
ltibia 13.5408
lfoot -9.25585 9.19924
ltoes -7.4266
145
root 4.31817 17.7656 5.72307 -0.976912 -5.48224 -7.2521
lowerback 10.0571 1.93383 6.70739
upperback -0.156892 3.46987 1.87673
thorax -5.53566 1.54444 -2.29773
lowerneck -16.4906 -3.62306 -1.46618
upperneck 21.6273 -4.73068 0.266291
head 9.60547 -2.28899 -0.280418
rclavicle 1.48747e-014 3.97569e-015
rhumerus -21.9254 -9.59629 -81.0833
rradius 32.1989
rwrist -0.725787
rhand -19.3734 23.1179
rfingers 7.12502
rthumb 6.94468 -6.74816
lclavicle 1.48747e-014 3.97569e-015
lhumerus -39.0297 -1.45229 87.1685
lradius 27.3272
lwrist 7.90166
lhand -29.039 17.1811
lfingers 7.12502
lthumb -2.38936 47.1474
rfemur 9.30972 8.40711 34.1004
rtibia 25.6974
rfoot -21.2051 -5.63997
rtoes -0.437085
lfemur -25.4709 -5.62884 -8.18789
ltibia 13.366
lfoot -9.15115 9.17361
ltoes -5.90282
146
root 4.3312 17.7494 5.91642 -1.11138 -5.33002 -7.20703
lowerback 10.0777 1.88533 6.68131
upperback -0.0866418 3.39912 1.86152
thorax -5.47933 1.51354 -2.28889
lowerneck -16.5791 -3.58454 -1.49066
upperneck 21.6363 -4.71553 0.455718
head 9.63087 -2.26143 -0.210912
rclavicle -2.5623e-014 -1.39149e-015
rhumerus -21.7399 -9.71393 -81.0893
rradius 32.1481
rwrist -0.795511
rhand -19.402 23.1223
rfingers 7.12502
rthumb 6.91712 -6.7447
lclavicle -2.5623e-014 -1.39149e-015
lhumerus -39.0289 -1.18481 87.0192
lradius 27.1648
lwrist 8.03549
lhand -28.5627 17.5854
lfingers 7.12502
lthumb -1.92936 47.5564
rfemur 9.89076 8.30928 34.0551
rtibia 26.2501
rfoot -21.0419 -5.5447
rtoes -2.21025
lfemur -25.3553 -5.82457 -8.46953
ltibia 13.7504
lfoot -8.70186 9.24311
ltoes -5.23509
147
root 4.34478 17.7324 6.11624 -1.36462 -5.11932 -6.87413
lowerback 10.0869 1.87532 6.30704
upperback 0.0836183 3.33105 1.8249
thorax -5.32786 1.49817 -2.10652
lowerneck -17.0348 -3.61547 -1.51189
upperneck 21.76 -4.75171 0.471358
head 9.76086 -2.27397 -0.217422
rclavicle 2.2354e-014 1.74434e-014
rhumerus -21.6885 -9.61059 -81.0433
rradius 32.5579
rwrist -1.37277
rhand -19.4125 22.2198
rfingers 7.12502
rthumb 6.90693 -7.64757
lclavicle 2.2354e-014 1.74434e-014
lhumerus -39.0389 -1.37054 87.3471
lradius 26.8712
lwrist 8.60348
lhand -29.5081 15.1794
lfingers 7.12502
lthumb -2.84242 45.1402
rfemur 10.4559 8.26044 33.7374
rtibia 26.8597
rfoot -20.7628 -5.48305
rtoes -3.36578
lfemur -25.2098 -5.12473 -9.45355
ltibia 14.4578
lfoot -8.01412 8.33506
ltoes -7.2672
